<svg viewBox="0 0 1024 1024" xmlns="http://www.w3.org/2000/svg" width="128" height="128"><path d="M512 42.688c55.296 0 100.864 42.112 106.176 96.064l256 144.064c13.44 7.616 21.76 21.76 21.76 37.184v286.208a106.752 106.752 0 0 1-42.56 204.544c-24.192 0-46.4-8.192-64.256-21.76l-256.192 144.256a42.688 42.688 0 0 1-41.856 0L234.88 789.056c-17.92 13.44-40.064 21.632-64.128 21.632A106.752 106.752 0 0 1 128 606.336V320c0-15.36 8.32-29.568 21.76-37.12l256-144.128A106.752 106.752 0 0 1 512 42.688z m21.504 655.488a42.688 42.688 0 0 1-43.008 0L374.528 630.528l-98.752 56.448a107.264 107.264 0 0 1 1.024 27.776L512 847.04l235.136-132.288a109.248 109.248 0 0 1 0.96-27.84l-98.752-56.384-115.84 67.648z m-362.88-15.488a21.312 21.312 0 1 0 0 42.624 21.312 21.312 0 0 0 0-42.56z m682.752 0a21.312 21.312 0 1 0 0 42.624 21.312 21.312 0 0 0 0-42.56z m-640-337.728v261.312c5.632 2.496 11.136 5.44 16.256 8.832l111.68-63.808v-113.92c0-15.168 8.064-29.248 21.12-36.928l64-37.312 42.88-25.024V247.04a106.816 106.816 0 0 1-36.032-25.792L213.376 344.96z m377.216-123.712c-9.984 10.88-22.144 19.84-35.904 25.856v91.008l42.816 25.024 64 37.312c13.056 7.68 21.12 21.76 21.12 36.928v113.856l111.68 63.872c5.12-3.456 10.624-6.4 16.384-8.896V344.96L590.592 221.248zM469.504 436.864l-42.88 24.96v100.288l42.88 25.024 42.496 24.768 42.496-24.768 42.816-25.024V461.76l-42.88-24.96L512 412.096l-42.496 24.832zM512 128a21.312 21.312 0 1 0 0 42.688A21.312 21.312 0 0 0 512 128z" fill="#165dff"/></svg>
<?xml version="1.0" standalone="no"?><!DOCTYPE svg PUBLIC "-//W3C//DTD SVG 1.1//EN" "http://www.w3.org/Graphics/SVG/1.1/DTD/svg11.dtd"><svg t="1773222346291" class="icon" viewBox="0 0 1024 1024" version="1.1" xmlns="http://www.w3.org/2000/svg" p-id="2326" width="64" height="64" xmlns:xlink="http://www.w3.org/1999/xlink"><path d="M512 42.688c55.296 0 100.864 42.112 106.176 96.064l256 144.064c13.44 7.616 21.76 21.76 21.76 37.184v286.208a106.752 106.752 0 0 1-42.56 204.544c-24.192 0-46.4-8.192-64.256-21.76l-256.192 144.256a42.688 42.688 0 0 1-41.856 0L234.88 789.056c-17.92 13.44-40.064 21.632-64.128 21.632A106.752 106.752 0 0 1 128 606.336V320c0-15.36 8.32-29.568 21.76-37.12l256-144.128A106.752 106.752 0 0 1 512 42.688z m21.504 655.488a42.688 42.688 0 0 1-43.008 0L374.528 630.528l-98.752 56.448a107.264 107.264 0 0 1 1.024 27.776L512 847.04l235.136-132.288a109.248 109.248 0 0 1 0.96-27.84l-98.752-56.384-115.84 67.648z m-362.88-15.488a21.312 21.312 0 1 0 0 42.624 21.312 21.312 0 0 0 0-42.56z m682.752 0a21.312 21.312 0 1 0 0 42.624 21.312 21.312 0 0 0 0-42.56z m-640-337.728v261.312c5.632 2.496 11.136 5.44 16.256 8.832l111.68-63.808v-113.92c0-15.168 8.064-29.248 21.12-36.928l64-37.312 42.88-25.024V247.04a106.816 106.816 0 0 1-36.032-25.792L213.376 344.96z m377.216-123.712c-9.984 10.88-22.144 19.84-35.904 25.856v91.008l42.816 25.024 64 37.312c13.056 7.68 21.12 21.76 21.12 36.928v113.856l111.68 63.872c5.12-3.456 10.624-6.4 16.384-8.896V344.96L590.592 221.248zM469.504 436.864l-42.88 24.96v100.288l42.88 25.024 42.496 24.768 42.496-24.768 42.816-25.024V461.76l-42.88-24.96L512 412.096l-42.496 24.832zM512 128a21.312 21.312 0 1 0 0 42.688A21.312 21.312 0 0 0 512 128z" fill="#165dff" p-id="2327"></path></svg>